<svg xmlns="http://www.w3.org/2000/svg" viewBox="0 0 39.41 32"><defs><style>.cls-1{fill:#0013ff;}</style></defs><g id="katman_2" data-name="katman 2"><g id="katman_1-2" data-name="katman 1"><path class="cls-1" d="M31.39,8.14A10.55,10.55,0,0,0,11.84,5.52a10.44,10.44,0,0,0-1.67-.13C4.56,5.39,0,9.62,0,14.82c0,4.78,3.86,8.8,9,9.36a1.34,1.34,0,0,0,.29-2.67,7,7,0,0,1-6.57-6.69c0-3.71,3.36-6.74,7.48-6.74a8.28,8.28,0,0,1,2.09.28,1.34,1.34,0,0,0,1.59-.8,7.85,7.85,0,0,1,15.05,2,1.36,1.36,0,0,0,1.48,1.19c3.5,0,6.34,2.43,6.34,5.39s-2.87,5.39-6.4,5.39h0A1.34,1.34,0,0,0,29,22.91a1.36,1.36,0,0,0,1.36,1.34c5,0,9.09-3.62,9.09-8.08C39.41,12,35.9,8.61,31.39,8.14Z"/><path class="cls-1" d="M12.8,17.85a1,1,0,0,0-1,1v4.05a1,1,0,0,0,2,0V18.86A1,1,0,0,0,12.8,17.85Z"/><path class="cls-1" d="M12.8,25.26a1,1,0,1,0,1,1A1,1,0,0,0,12.8,25.26Z"/><path class="cls-1" d="M21.78,25.94a1,1,0,0,0-1,1v4a1,1,0,0,0,2,0V27A1,1,0,0,0,21.78,25.94Z"/><path class="cls-1" d="M21.78,15.16a1,1,0,0,0-1,1v4a1,1,0,0,0,2,0v-4A1,1,0,0,0,21.78,15.16Z"/><path class="cls-1" d="M21.78,22.57a1,1,0,1,0,1,1A1,1,0,0,0,21.78,22.57Z"/><path class="cls-1" d="M17.29,20.55a1,1,0,0,0-1,1v4a1,1,0,0,0,2,0v-4A1,1,0,0,0,17.29,20.55Z"/><path class="cls-1" d="M17.29,28a1,1,0,1,0,1,1A1,1,0,0,0,17.29,28Z"/><path class="cls-1" d="M17.29,17.18a1,1,0,1,0,1,1A1,1,0,0,0,17.29,17.18Z"/><path class="cls-1" d="M26.27,21.89a1,1,0,0,0-1,1v4a1,1,0,1,0,2,0v-4A1,1,0,0,0,26.27,21.89Z"/><path class="cls-1" d="M26.27,18.53a1,1,0,1,0,1,1A1,1,0,0,0,26.27,18.53Z"/></g></g></svg>